<svg width="190" height="190" viewBox="0 0 190 190" fill="none" xmlns="http://www.w3.org/2000/svg">
<g clip-path="url(#clip0_572:1893)">
<path d="M94.7815 53.2255C70.243 53.2255 50.35 73.1185 50.35 97.657C50.35 122.196 70.243 142.089 94.7815 142.089C119.32 142.089 139.213 122.196 139.213 97.657C139.223 73.1185 119.33 53.2255 94.7815 53.2255Z" stroke="#D7B56D" stroke-width="2" stroke-miterlimit="10"/>
<path d="M94.7625 16.1755C49.7705 16.1755 13.3 52.646 13.3 97.638C13.3 142.63 49.7705 179.101 94.7625 179.101C139.754 179.101 176.225 142.63 176.225 97.638C176.225 52.646 139.754 16.1755 94.7625 16.1755Z" stroke="#D7B56D" stroke-width="2" stroke-miterlimit="10"/>
<path d="M106.571 92.8215V87.302C106.571 87.0835 106.533 84.908 106.457 84.699C105.944 83.274 103.569 79.8445 97.147 79.8445C90.8105 79.8445 88.4165 83.3025 87.856 84.68C87.761 84.908 87.723 86.447 87.723 86.6845V92.8215H106.571Z" fill="white"/>
<path d="M42.9685 78.5145C42.9305 78.4005 42.826 78.315 42.7025 78.296L36.8505 77.441L34.2285 72.1305C34.1715 72.0165 34.0575 71.95 33.934 71.95C33.8105 71.95 33.6965 72.0165 33.6395 72.1305L31.0175 77.441L25.1655 78.296C25.042 78.315 24.947 78.4005 24.8995 78.5145C24.8615 78.6285 24.89 78.7615 24.985 78.847L29.222 82.9795L28.2245 88.8125C28.2055 88.936 28.253 89.0595 28.3575 89.126C28.462 89.202 28.5855 89.2115 28.6995 89.1545L33.934 86.3995L39.1685 89.1545C39.216 89.183 39.2635 89.1925 39.3205 89.1925C39.387 89.1925 39.4535 89.1735 39.5105 89.126C39.6055 89.05 39.6625 88.9265 39.6435 88.8125L38.646 82.9795L42.883 78.847C42.978 78.752 43.0065 78.6285 42.9685 78.5145Z" fill="#D7B56D"/>
<path d="M42.579 104.098C42.541 103.984 42.4365 103.899 42.313 103.88L36.461 103.025L33.839 97.714C33.782 97.6 33.668 97.5335 33.5445 97.5335C33.421 97.5335 33.307 97.6 33.25 97.714L30.628 103.025L24.776 103.88C24.6525 103.899 24.5575 103.984 24.51 104.098C24.472 104.212 24.5005 104.345 24.5955 104.431L28.8325 108.563L27.835 114.396C27.816 114.52 27.8635 114.643 27.968 114.71C28.0725 114.786 28.196 114.795 28.31 114.738L33.5445 111.983L38.779 114.738C38.8265 114.767 38.874 114.776 38.931 114.776C38.9975 114.776 39.064 114.757 39.121 114.71C39.216 114.634 39.273 114.51 39.254 114.396L38.2565 108.563L42.4935 104.431C42.579 104.345 42.617 104.212 42.579 104.098Z" fill="#D7B56D"/>
<path d="M53.029 129.748C52.991 129.634 52.8865 129.549 52.763 129.53L46.911 128.675L44.289 123.364C44.232 123.25 44.118 123.184 43.9945 123.184C43.871 123.184 43.757 123.25 43.7 123.364L41.078 128.675L35.226 129.53C35.1025 129.549 35.0075 129.634 34.96 129.748C34.922 129.862 34.9505 129.995 35.0455 130.081L39.2825 134.213L38.285 140.046C38.266 140.17 38.3135 140.293 38.418 140.36C38.5225 140.436 38.646 140.445 38.76 140.388L43.9945 137.633L49.229 140.388C49.2765 140.417 49.324 140.426 49.381 140.426C49.4475 140.426 49.514 140.407 49.571 140.36C49.666 140.284 49.723 140.16 49.704 140.046L48.7065 134.213L52.9435 130.081C53.029 129.995 53.067 129.862 53.029 129.748Z" fill="#D7B56D"/>
<path d="M147.431 78.809L151.667 82.9415L150.67 88.7745C150.651 88.898 150.699 89.0215 150.803 89.088C150.86 89.126 150.927 89.1545 150.993 89.1545C151.041 89.1545 151.098 89.145 151.145 89.1165L156.38 86.3615L161.614 89.1165C161.718 89.1735 161.851 89.164 161.956 89.088C162.051 89.012 162.108 88.8885 162.089 88.7745L161.092 82.9415L165.328 78.809C165.414 78.7235 165.452 78.5905 165.414 78.4765C165.376 78.3625 165.271 78.277 165.148 78.258L159.296 77.403L156.674 72.0925C156.617 71.9785 156.503 71.912 156.38 71.912C156.256 71.912 156.142 71.9785 156.085 72.0925L153.463 77.403L147.611 78.258C147.488 78.277 147.383 78.3625 147.345 78.4765C147.307 78.6 147.345 78.7235 147.431 78.809Z" fill="#D7B56D"/>
<path d="M148.779 104.402L153.016 108.535L152.019 114.367C152 114.491 152.047 114.614 152.152 114.681C152.209 114.719 152.275 114.747 152.342 114.747C152.389 114.747 152.446 114.738 152.494 114.709L157.728 111.954L162.963 114.709C163.067 114.766 163.2 114.757 163.305 114.681C163.4 114.605 163.457 114.481 163.438 114.367L162.44 108.535L166.677 104.402C166.763 104.317 166.801 104.183 166.763 104.069C166.725 103.955 166.62 103.87 166.497 103.851L160.645 102.996L158.023 97.6855C157.966 97.5715 157.852 97.505 157.728 97.505C157.605 97.505 157.491 97.5715 157.434 97.6855L154.812 102.996L148.96 103.851C148.836 103.87 148.732 103.955 148.694 104.069C148.656 104.183 148.684 104.317 148.779 104.402Z" fill="#D7B56D"/>
<path d="M140.229 130.052L144.466 134.184L143.469 140.017C143.45 140.141 143.497 140.264 143.602 140.331C143.659 140.369 143.725 140.397 143.792 140.397C143.839 140.397 143.896 140.388 143.944 140.359L149.178 137.605L154.413 140.359C154.517 140.416 154.65 140.407 154.755 140.331C154.85 140.255 154.907 140.131 154.888 140.017L153.89 134.184L158.127 130.052C158.213 129.966 158.251 129.834 158.213 129.72C158.175 129.606 158.07 129.52 157.947 129.501L152.095 128.646L149.473 123.336C149.416 123.222 149.302 123.155 149.178 123.155C149.055 123.155 148.941 123.222 148.884 123.336L146.262 128.646L140.41 129.501C140.286 129.52 140.182 129.606 140.144 129.72C140.106 129.834 140.134 129.966 140.229 130.052Z" fill="#D7B56D"/>
<path d="M105.43 99.7389C103.749 98.3367 100.922 97.096 96.9653 96.0022V81.173C98.8226 81.2758 100.335 81.753 101.487 82.5972C102.992 83.7204 103.8 85.3869 103.91 87.5966C103.91 88.1912 104.086 88.6684 104.439 89.0207C104.754 89.3364 105.121 89.4979 105.54 89.4979C105.995 89.4979 106.362 89.3364 106.641 89.0207C106.993 88.6684 107.17 88.1985 107.17 87.5966C107.17 84.8583 106.237 82.6486 104.38 80.9675C102.523 79.3231 100.049 78.4274 96.9653 78.2806V75.4396C96.9653 74.566 96.5101 74.1255 95.5998 74.1255C94.7189 74.1255 94.2858 74.566 94.2858 75.4396V78.2806C91.1951 78.3834 88.6698 79.279 86.7097 80.9675C84.5661 82.8248 83.5016 85.2988 83.5016 88.3821C83.5016 91.0102 84.4486 93.1391 86.3426 94.7469C88.0605 96.2224 90.7106 97.375 94.2858 98.2192V114.106C91.7604 113.863 89.793 113.159 88.3908 111.999C86.5628 110.457 85.6746 108.181 85.7039 105.157C85.7039 104.562 85.5424 104.107 85.2268 103.791C84.9478 103.476 84.5954 103.314 84.177 103.314C83.7585 103.314 83.4061 103.476 83.1272 103.791C82.8115 104.107 82.65 104.562 82.65 105.157C82.65 109.4 83.898 112.505 86.3867 114.465C88.2073 115.831 90.8428 116.675 94.2784 116.991V120.83C94.2784 121.74 94.7189 122.196 95.5925 122.196C96.5028 122.196 96.958 121.74 96.958 120.83V117.042C100.151 116.8 102.816 115.765 104.952 113.937C107.228 111.977 108.373 109.466 108.373 106.412C108.373 103.578 107.39 101.354 105.43 99.7389ZM94.2784 95.2681C91.5769 94.5707 89.6461 93.6237 88.4936 92.427C87.3704 91.2671 86.8125 89.7989 86.8125 88.0077C86.8125 85.8347 87.6567 84.1168 89.3378 82.8542C90.7033 81.8411 92.355 81.2611 94.2858 81.1216L94.2784 95.2681ZM102.222 112.153C100.746 113.239 98.9915 113.885 96.958 114.098V99.0561C100.012 99.8269 102.075 100.708 103.169 101.684C104.395 102.771 105.011 104.459 105.011 106.735C105.011 109.018 104.079 110.824 102.222 112.153Z" fill="#D7B56D" stroke="#D7B56D" stroke-width="2" stroke-miterlimit="10"/>
<path d="M153.643 53.5865C153.605 53.4725 153.501 53.387 153.377 53.368L147.525 52.513L144.903 47.2025C144.846 47.0885 144.732 47.022 144.609 47.022C144.485 47.022 144.371 47.0885 144.314 47.2025L141.692 52.513L135.84 53.368C135.717 53.387 135.622 53.4725 135.574 53.5865C135.536 53.7005 135.565 53.8335 135.66 53.919L139.897 58.0515L138.899 63.8845C138.88 64.008 138.928 64.1315 139.032 64.198C139.137 64.274 139.26 64.2835 139.374 64.2265L144.609 61.4715L149.843 64.2265C149.891 64.255 149.938 64.2645 149.995 64.2645C150.062 64.2645 150.128 64.2455 150.185 64.198C150.28 64.122 150.337 63.9985 150.318 63.8845L149.321 58.0515L153.558 53.919C153.643 53.8335 153.681 53.7005 153.643 53.5865Z" fill="#D7B56D"/>
<path d="M77.197 38.0825C77.9285 38.5195 78.4795 39.194 78.8405 40.1155C79.363 41.417 79.2585 42.614 78.527 43.716C77.7955 44.818 76.4655 45.7585 74.5275 46.528L66.861 49.5965L60.933 34.7765L68.172 31.879C69.977 31.157 71.5065 30.948 72.7415 31.252C73.986 31.556 74.841 32.3065 75.316 33.4845C75.601 34.2065 75.6865 34.919 75.5725 35.622C75.449 36.325 75.145 36.9615 74.6605 37.541C75.62 37.465 76.4655 37.6455 77.197 38.0825ZM65.3885 35.9925L66.785 39.4885L70.1955 38.13C71.041 37.788 71.63 37.389 71.9435 36.914C72.257 36.439 72.3045 35.9165 72.0765 35.337C71.8485 34.7575 71.4495 34.4155 70.8985 34.3015C70.3475 34.1875 69.6445 34.3015 68.799 34.634L65.3885 35.9925ZM75.107 42.785C75.449 42.31 75.4965 41.759 75.2495 41.132C74.7555 39.9065 73.606 39.6595 71.782 40.3815L67.7825 41.987L69.2455 45.6445L73.245 44.0485C74.1475 43.6875 74.7745 43.2695 75.107 42.785Z" fill="#D7B56D"/>
<path d="M95.988 39.65L96.235 42.6045L83.923 43.6495L82.574 27.7465L94.5915 26.7205L94.8385 29.675L86.4785 30.3875L86.773 33.8455L94.1545 33.2185L94.4015 36.078L87.02 36.705L87.3335 40.3815L95.988 39.65Z" fill="#D7B56D"/>
<path d="M101.498 43.0225C100.405 42.462 99.56 41.854 98.9615 41.1795L100.719 38.681C101.298 39.2985 102.021 39.8495 102.885 40.3245C103.75 40.7995 104.652 41.1225 105.573 41.303C106.609 41.5025 107.397 41.493 107.948 41.284C108.499 41.075 108.823 40.714 108.927 40.201C108.994 39.8305 108.908 39.4885 108.67 39.1845C108.433 38.8805 108.091 38.6145 107.663 38.377C107.236 38.1395 106.656 37.8545 105.915 37.5315C104.775 37.0185 103.854 36.5435 103.142 36.116C102.429 35.6885 101.869 35.109 101.441 34.3775C101.014 33.646 100.9 32.753 101.099 31.7175C101.27 30.8055 101.678 30.0265 102.315 29.3805C102.951 28.7345 103.807 28.2975 104.88 28.0505C105.954 27.813 107.207 27.8225 108.642 28.098C109.639 28.288 110.599 28.592 111.501 29.0195C112.413 29.4375 113.183 29.941 113.81 30.53L112.166 33.0665C110.874 31.9645 109.506 31.2805 108.062 31.005C107.046 30.8055 106.267 30.834 105.716 31.062C105.165 31.29 104.842 31.6795 104.738 32.221C104.633 32.7625 104.842 33.209 105.345 33.5795C105.858 33.95 106.656 34.368 107.758 34.843C108.898 35.356 109.82 35.831 110.532 36.2585C111.235 36.686 111.805 37.2655 112.233 37.978C112.66 38.6905 112.774 39.574 112.575 40.619C112.404 41.512 111.995 42.2815 111.359 42.9275C110.722 43.5735 109.858 44.0105 108.775 44.2575C107.692 44.5045 106.438 44.4855 105.003 44.21C103.749 43.9725 102.59 43.583 101.498 43.0225Z" fill="#D7B56D"/>
<path d="M123.167 36.154L118.57 33.931L119.881 31.2235L132.411 37.2655L131.1 39.973L126.502 37.75L120.878 49.416L117.553 47.8105L123.167 36.154Z" fill="#D7B56D"/>
<path d="M72.3615 148.235C73.017 149.176 73.3685 150.154 73.4065 151.19C73.4445 152.225 73.169 153.251 72.561 154.268C71.9625 155.275 71.2025 156.006 70.2715 156.481C69.3405 156.956 68.3145 157.118 67.184 156.985C66.0535 156.852 64.8755 156.424 63.6595 155.702L60.895 154.068L58.653 157.849L55.4705 155.968L63.6025 142.231L69.5495 145.756C70.7655 146.468 71.706 147.295 72.3615 148.235ZM67.564 153.679C68.305 153.565 68.9035 153.118 69.35 152.368C69.806 151.598 69.9105 150.857 69.654 150.154C69.3975 149.451 68.799 148.815 67.8395 148.245L65.246 146.715L62.4245 151.484L65.018 153.014C65.9775 153.565 66.823 153.793 67.564 153.679Z" fill="#D7B56D"/>
<path d="M84.3505 167.815L82.2985 162.808L82.118 162.77L78.983 162.077L78.0235 166.418L74.4135 165.63L77.843 150.04L84.588 151.522C85.9655 151.826 87.115 152.32 88.027 153.004C88.939 153.688 89.585 154.515 89.946 155.484C90.307 156.453 90.364 157.517 90.1075 158.666C89.851 159.825 89.357 160.766 88.616 161.478C87.875 162.191 86.944 162.666 85.823 162.884L88.217 168.66L84.3505 167.815ZM86.07 155.674C85.6045 155.085 84.835 154.667 83.752 154.429L80.8165 153.783L79.6195 159.217L82.555 159.863C83.638 160.101 84.512 160.044 85.1865 159.692C85.861 159.341 86.2885 158.733 86.4785 157.878C86.6685 156.994 86.5355 156.263 86.07 155.674Z" fill="#D7B56D"/>
<path d="M94.6105 152.691L98.306 152.615L98.629 168.575L94.9335 168.651L94.6105 152.691Z" fill="#D7B56D"/>
<path d="M109.412 166.418C107.958 166.076 106.704 165.392 105.659 164.376C104.605 163.359 103.873 162.086 103.465 160.557C103.056 159.027 103.056 157.564 103.455 156.158C103.854 154.752 104.605 153.536 105.688 152.52C106.771 151.503 108.11 150.772 109.697 150.344C111.036 149.983 112.3 149.898 113.506 150.078C114.713 150.259 115.796 150.696 116.765 151.38L115.045 154.106C113.677 153.185 112.224 152.928 110.685 153.337C109.735 153.593 108.937 154.03 108.3 154.648C107.664 155.265 107.236 156.006 107.018 156.871C106.799 157.735 106.818 158.638 107.075 159.597C107.331 160.547 107.768 161.345 108.385 161.982C109.003 162.618 109.744 163.046 110.609 163.264C111.473 163.483 112.376 163.464 113.335 163.207C114.874 162.799 116.005 161.839 116.717 160.338L119.577 161.839C119.083 162.932 118.351 163.863 117.392 164.623C116.432 165.383 115.283 165.943 113.943 166.304C112.376 166.722 110.865 166.76 109.412 166.418Z" fill="#D7B56D"/>
<path d="M135.575 151.94L137.171 154.439L126.768 161.108L118.161 147.665L128.317 141.158L129.913 143.656L122.845 148.178L124.716 151.095L130.958 147.095L132.506 149.518L126.265 153.517L128.259 156.624L135.575 151.94Z" fill="#D7B56D"/>
<path d="M35.948 54.1185L40.185 58.251L39.1875 64.084C39.1685 64.2075 39.216 64.331 39.3205 64.3975C39.3775 64.4355 39.444 64.464 39.5105 64.464C39.558 64.464 39.615 64.4545 39.6625 64.426L44.897 61.671L50.1315 64.426C50.236 64.483 50.369 64.4735 50.4735 64.3975C50.5685 64.3215 50.6255 64.198 50.6065 64.084L49.609 58.251L53.846 54.1185C53.9315 54.033 53.9695 53.9 53.9315 53.786C53.8935 53.672 53.789 53.5865 53.6655 53.5675L47.8135 52.7125L45.1915 47.402C45.1345 47.288 45.0205 47.2215 44.897 47.2215C44.7735 47.2215 44.6595 47.288 44.6025 47.402L41.9805 52.7125L36.1285 53.5675C36.005 53.5865 35.9005 53.672 35.8625 53.786C35.8245 53.9095 35.8625 54.033 35.948 54.1185Z" fill="#D7B56D"/>
</g>
<defs>
<clipPath id="clip0_572:1893">
<rect width="190" height="190" fill="white"/>
</clipPath>
</defs>
</svg>
