<svg width="190" height="190" viewBox="0 0 190 190" fill="none" xmlns="http://www.w3.org/2000/svg">
<path d="M76.5035 93.154V122.775C76.5035 124.637 78.014 126.138 79.8665 126.138H113.525C115.387 126.138 116.888 124.628 116.888 122.775V93.154H76.5035ZM101.869 106.806C101.859 107.129 101.821 107.442 101.736 107.756C101.65 108.715 101.204 109.646 100.406 110.216C100.463 110.454 100.51 110.701 100.51 110.957V116.534C100.51 118.424 98.971 119.821 97.147 119.897C95.3325 119.982 93.784 118.291 93.784 116.534V110.957C93.784 110.71 93.822 110.473 93.8695 110.245C93.2425 109.893 92.834 109.342 92.5775 108.715C92.34 108.326 92.1405 107.917 92.017 107.461C91.96 107.043 91.903 106.616 91.846 106.198C91.8175 105.542 91.96 104.934 92.2545 104.364C92.4445 103.775 92.777 103.262 93.233 102.835C93.6605 102.369 94.1735 102.046 94.7625 101.856C95.3325 101.562 95.9405 101.419 96.596 101.448H96.7575C96.8145 101.448 96.8715 101.457 96.938 101.467C97.0425 101.457 97.1375 101.448 97.242 101.448C99.541 101.448 100.976 102.787 101.546 104.459C101.821 105.191 101.935 106.008 101.869 106.806Z" fill="#D7B56D"/>
<path fill-rule="evenodd" clip-rule="evenodd" d="M51.269 99.8895C51.269 74.7988 71.6097 54.458 96.7005 54.458C121.791 54.458 142.132 74.7988 142.132 99.8895C142.132 124.98 121.791 145.321 96.7005 145.321C71.6097 145.321 51.269 124.98 51.269 99.8895ZM96.7005 56.458C72.7143 56.458 53.269 75.9033 53.269 99.8895C53.269 123.876 72.7143 143.321 96.7005 143.321C120.687 143.321 140.132 123.876 140.132 99.8895C140.132 75.9033 120.687 56.458 96.7005 56.458ZM97.2175 102.447C96.7435 102.426 96.308 102.527 95.8865 102.744L95.8131 102.782L95.7345 102.808C95.3066 102.946 94.9426 103.175 94.6345 103.511L94.6092 103.538L94.5819 103.564C94.2437 103.881 94.0068 104.251 93.8712 104.671L93.8458 104.75L93.8079 104.823C93.5966 105.232 93.4956 105.654 93.5085 106.112C93.5349 106.305 93.5613 106.501 93.5875 106.696L93.5885 106.703C93.6136 106.889 93.6385 107.074 93.6635 107.257C93.7562 107.574 93.9025 107.877 94.0963 108.194L94.1378 108.263L94.168 108.336C94.3609 108.808 94.6388 109.157 95.0235 109.372L95.663 109.731L95.5135 110.448C95.4717 110.649 95.449 110.81 95.449 110.957V116.534C95.449 117.795 96.5922 118.953 97.7649 118.898L97.7704 118.897C99.1256 118.841 100.175 117.823 100.175 116.534V110.957C100.175 110.819 100.149 110.663 100.098 110.449L99.9408 109.794L100.489 109.402C101.007 109.032 101.34 108.392 101.404 107.667L101.412 107.578L101.436 107.492C101.496 107.271 101.526 107.039 101.534 106.776L101.535 106.749L101.537 106.722C101.592 106.062 101.504 105.399 101.279 104.822L101.271 104.802L101.264 104.782C100.817 103.471 99.7336 102.448 97.907 102.448C97.8574 102.448 97.8123 102.452 97.6935 102.462L97.5772 102.473L97.4616 102.456L97.4133 102.45L97.3988 102.448H97.2393L97.2175 102.447ZM97.2815 100.448C96.4816 100.417 95.7334 100.587 95.0419 100.93C94.3356 101.172 93.7096 101.57 93.1869 102.131C92.6466 102.645 92.2381 103.266 91.994 103.978C91.6476 104.676 91.4768 105.432 91.5119 106.241L91.5139 106.287L91.5201 106.333C91.5485 106.541 91.5769 106.751 91.6054 106.963C91.6339 107.174 91.6625 107.386 91.6912 107.596L91.6999 107.66L91.7168 107.722C91.8646 108.268 92.0948 108.744 92.3485 109.169C92.5891 109.731 92.9451 110.273 93.4578 110.709C93.4522 110.789 93.449 110.872 93.449 110.957V116.534C93.449 118.786 95.4009 121.009 97.8556 120.896C100.148 120.799 102.175 119.024 102.175 116.534V110.957C102.175 110.834 102.168 110.715 102.155 110.602C102.884 109.869 103.284 108.895 103.388 107.932C103.48 107.566 103.521 107.209 103.532 106.862C103.605 105.941 103.486 104.988 103.15 104.116C102.452 102.092 100.669 100.448 97.907 100.448C97.8038 100.448 97.7067 100.454 97.6266 100.46C97.5682 100.454 97.4953 100.448 97.4225 100.448H97.2815Z" fill="#D7B56D"/>
<path fill-rule="evenodd" clip-rule="evenodd" d="M14.238 99.8895C14.238 54.3452 51.1562 17.427 96.7005 17.427C142.245 17.427 179.163 54.3452 179.163 99.8895C179.163 145.434 142.245 182.352 96.7005 182.352C51.1562 182.352 14.238 145.434 14.238 99.8895ZM96.7005 19.427C52.2608 19.427 16.238 55.4498 16.238 99.8895C16.238 144.329 52.2608 180.352 96.7005 180.352C141.14 180.352 177.163 144.329 177.163 99.8895C177.163 55.4498 141.14 19.427 96.7005 19.427ZM94.6419 102.712C94.5688 102.734 94.5425 102.747 94.547 102.744L94.4736 102.782L94.395 102.808C93.9671 102.946 93.6031 103.175 93.295 103.511L93.2697 103.538L93.2425 103.564C92.9042 103.881 92.6673 104.251 92.5317 104.671L92.5064 104.75L92.4684 104.823C92.2572 105.232 92.1561 105.654 92.169 106.112C92.1954 106.305 92.2218 106.501 92.248 106.696L92.249 106.703C92.2733 106.883 92.2976 107.063 92.3217 107.241C92.3296 107.264 92.3395 107.292 92.3515 107.325C92.3815 107.408 92.4224 107.516 92.4728 107.639C92.5741 107.889 92.7081 108.19 92.8605 108.478C93.0171 108.774 93.1727 109.016 93.3092 109.174C93.3408 109.211 93.3662 109.237 93.3853 109.255L94.4086 109.322L94.1855 110.393C94.1853 110.396 94.1851 110.4 94.1849 110.403C94.1826 110.45 94.18 110.519 94.1773 110.61C94.1719 110.791 94.1666 111.042 94.1615 111.34C94.1513 111.937 94.1421 112.713 94.1344 113.485C94.1267 114.255 94.1205 115.019 94.1162 115.59C94.1149 115.762 94.1138 115.917 94.1128 116.049C94.1122 116.136 94.1117 116.213 94.1112 116.279L94.1096 116.522L94.1095 116.534C94.1095 117.795 95.2528 118.953 96.4255 118.898L96.4309 118.897C97.785 118.841 98.8338 117.825 98.8355 116.537C98.8355 116.536 98.8355 116.535 98.8355 116.534L98.8354 116.524L98.8334 116.28C98.832 116.114 98.8299 115.876 98.8272 115.589C98.8219 115.016 98.8142 114.25 98.8047 113.476C98.7952 112.702 98.784 111.923 98.7716 111.324C98.7654 111.024 98.759 110.773 98.7525 110.591C98.7492 110.5 98.7462 110.432 98.7434 110.386C98.7434 110.386 98.7434 110.387 98.7434 110.386L98.6013 109.794L99.1498 109.402C99.6678 109.032 100 108.392 100.065 107.667L100.073 107.578L100.096 107.492C100.157 107.271 100.187 107.039 100.194 106.776L100.195 106.749L100.197 106.722C100.252 106.071 100.158 105.402 99.9352 104.811L99.9296 104.797L99.9245 104.782C99.4777 103.471 98.3941 102.448 96.5675 102.448C96.5766 102.448 96.147 102.47 95.6234 102.534C95.3704 102.565 95.118 102.603 94.9044 102.647C94.798 102.669 94.7101 102.691 94.6419 102.712ZM92.1095 116.527L92.1095 116.526L92.1113 116.266C92.1124 116.099 92.1141 115.862 92.1162 115.575C92.1205 115.003 92.1268 114.237 92.1345 113.465C92.1422 112.692 92.1515 111.91 92.1618 111.306C92.1646 111.139 92.1676 110.984 92.1706 110.847C92.0151 110.723 91.8901 110.591 91.7966 110.483C91.5181 110.161 91.2805 109.768 91.0928 109.413C90.719 108.707 90.4439 107.959 90.3799 107.732L90.3611 107.665L90.3517 107.596C90.3231 107.386 90.2945 107.174 90.266 106.963C90.2375 106.751 90.2091 106.541 90.1807 106.333L90.1745 106.287L90.1725 106.241C90.1373 105.432 90.3081 104.676 90.6545 103.978C90.8986 103.266 91.3071 102.645 91.8475 102.131C92.3727 101.568 93.0024 101.168 93.713 100.927C93.9668 100.811 94.2603 100.738 94.498 100.689C94.7864 100.629 95.0987 100.583 95.3813 100.549C95.9288 100.482 96.4539 100.448 96.5675 100.448C99.3321 100.448 101.116 102.095 101.812 104.121C102.134 104.981 102.266 105.931 102.193 106.862C102.181 107.209 102.14 107.566 102.048 107.932C101.942 108.921 101.523 109.922 100.756 110.661C100.761 110.836 100.766 111.047 100.771 111.283C100.784 111.89 100.795 112.676 100.805 113.452C100.814 114.228 100.822 114.996 100.827 115.57C100.83 115.858 100.832 116.096 100.833 116.263L100.835 116.521L100.835 116.525L100.835 116.526L100.836 116.534C100.836 119.023 98.8092 120.798 96.518 120.895C94.0624 121.01 92.1095 118.787 92.1095 116.534L92.1095 116.527Z" fill="#D7B56D"/>
<path d="M82.403 93.496C82.403 93.496 82.4315 84.3475 82.5075 84.186C83.1155 82.7135 86.222 73.8975 97.641 74.0495C108.376 74.192 111.777 82.932 112.157 84.034C112.185 84.11 112.195 84.1765 112.195 84.2525V93.496" fill="#D7B56D"/>
<path d="M106.571 92.8215V87.302C106.571 87.0835 106.533 84.908 106.457 84.699C105.944 83.274 103.569 79.8445 97.147 79.8445C90.8105 79.8445 88.4165 83.3025 87.856 84.68C87.761 84.908 87.723 86.447 87.723 86.6845V92.8215H106.571Z" fill="white"/>
<path d="M47.7185 67.1145C47.6805 67.0005 47.576 66.915 47.4525 66.896L41.6005 66.041L38.9785 60.7305C38.9215 60.6165 38.8075 60.55 38.684 60.55C38.5605 60.55 38.4465 60.6165 38.3895 60.7305L35.7675 66.041L29.9155 66.896C29.792 66.915 29.697 67.0005 29.6495 67.1145C29.6115 67.2285 29.64 67.3615 29.735 67.447L33.972 71.5795L32.9745 77.4125C32.9555 77.536 33.003 77.6595 33.1075 77.726C33.212 77.802 33.3355 77.8115 33.4495 77.7545L38.684 74.9995L43.9185 77.7545C43.966 77.783 44.0135 77.7925 44.0705 77.7925C44.137 77.7925 44.2035 77.7735 44.2605 77.726C44.3555 77.65 44.4125 77.5265 44.3935 77.4125L43.396 71.5795L47.633 67.447C47.728 67.352 47.7565 67.2285 47.7185 67.1145Z" fill="#D7B56D"/>
<path d="M40.679 92.698C40.641 92.584 40.5365 92.4985 40.413 92.4795L34.561 91.6245L31.939 86.314C31.882 86.2 31.768 86.1335 31.6445 86.1335C31.521 86.1335 31.407 86.2 31.35 86.314L28.728 91.6245L22.876 92.4795C22.7525 92.4985 22.6575 92.584 22.61 92.698C22.572 92.812 22.6005 92.945 22.6955 93.0305L26.9325 97.163L25.935 102.996C25.916 103.12 25.9635 103.243 26.068 103.31C26.1725 103.386 26.296 103.395 26.41 103.338L31.6445 100.583L36.879 103.338C36.9265 103.367 36.974 103.376 37.031 103.376C37.0975 103.376 37.164 103.357 37.221 103.31C37.316 103.234 37.373 103.11 37.354 102.996L36.3565 97.163L40.5935 93.0305C40.679 92.945 40.717 92.812 40.679 92.698Z" fill="#D7B56D"/>
<path d="M44.479 118.348C44.441 118.234 44.3365 118.149 44.213 118.13L38.361 117.275L35.739 111.964C35.682 111.85 35.568 111.784 35.4445 111.784C35.321 111.784 35.207 111.85 35.15 111.964L32.528 117.275L26.676 118.13C26.5525 118.149 26.4575 118.234 26.41 118.348C26.372 118.462 26.4005 118.595 26.4955 118.681L30.7325 122.813L29.735 128.646C29.716 128.77 29.7635 128.893 29.868 128.96C29.9725 129.036 30.096 129.045 30.21 128.988L35.4445 126.233L40.679 128.988C40.7265 129.017 40.774 129.026 40.831 129.026C40.8975 129.026 40.964 129.007 41.021 128.96C41.116 128.884 41.173 128.76 41.154 128.646L40.1565 122.813L44.3935 118.681C44.479 118.595 44.517 118.462 44.479 118.348Z" fill="#D7B56D"/>
<path d="M142.681 67.409L146.918 71.5415L145.92 77.3745C145.901 77.498 145.949 77.6215 146.053 77.688C146.11 77.726 146.177 77.7545 146.243 77.7545C146.291 77.7545 146.348 77.745 146.395 77.7165L151.63 74.9615L156.864 77.7165C156.969 77.7735 157.102 77.764 157.206 77.688C157.301 77.612 157.358 77.4885 157.339 77.3745L156.342 71.5415L160.579 67.409C160.664 67.3235 160.702 67.1905 160.664 67.0765C160.626 66.9625 160.522 66.877 160.398 66.858L154.546 66.003L151.924 60.6925C151.867 60.5785 151.753 60.512 151.63 60.512C151.506 60.512 151.392 60.5785 151.335 60.6925L148.713 66.003L142.861 66.858C142.738 66.877 142.633 66.9625 142.595 67.0765C142.557 67.2 142.595 67.3235 142.681 67.409Z" fill="#D7B56D"/>
<path d="M150.68 93.002L154.917 97.1345L153.919 102.967C153.9 103.091 153.948 103.214 154.052 103.281C154.109 103.319 154.176 103.347 154.242 103.347C154.29 103.347 154.347 103.338 154.394 103.309L159.629 100.554L164.863 103.309C164.968 103.366 165.101 103.357 165.205 103.281C165.3 103.205 165.357 103.081 165.338 102.967L164.341 97.1345L168.578 93.002C168.663 92.9165 168.701 92.7835 168.663 92.6695C168.625 92.5555 168.521 92.47 168.397 92.451L162.545 91.596L159.923 86.2855C159.866 86.1715 159.752 86.105 159.629 86.105C159.505 86.105 159.391 86.1715 159.334 86.2855L156.712 91.596L150.86 92.451C150.737 92.47 150.632 92.5555 150.594 92.6695C150.556 92.7835 150.585 92.9165 150.68 93.002Z" fill="#D7B56D"/>
<path d="M145.93 118.652L150.167 122.784L149.169 128.617C149.15 128.741 149.198 128.864 149.302 128.931C149.359 128.969 149.426 128.997 149.492 128.997C149.54 128.997 149.597 128.988 149.644 128.959L154.879 126.204L160.113 128.959C160.218 129.016 160.351 129.007 160.455 128.931C160.55 128.855 160.607 128.731 160.588 128.617L159.591 122.784L163.828 118.652C163.913 118.566 163.951 118.433 163.913 118.319C163.875 118.205 163.771 118.12 163.647 118.101L157.795 117.246L155.173 111.935C155.116 111.821 155.002 111.755 154.879 111.755C154.755 111.755 154.641 111.821 154.584 111.935L151.962 117.246L146.11 118.101C145.987 118.12 145.882 118.205 145.844 118.319C145.806 118.433 145.835 118.566 145.93 118.652Z" fill="#D7B56D"/>
<path d="M68.5995 52.4655C67.2695 52.627 66.1295 52.5795 65.1795 52.3325L65.2555 48.998C66.158 49.207 67.146 49.2735 68.2195 49.1785C69.293 49.0835 70.3095 48.8365 71.2595 48.4375C72.314 47.991 73.0265 47.5065 73.397 46.9745C73.7675 46.452 73.8435 45.9295 73.625 45.407C73.4635 45.027 73.1785 44.7705 72.7795 44.647C72.371 44.5235 71.9055 44.4855 71.3735 44.5235C70.8415 44.571 70.1385 44.666 69.2645 44.818C67.9155 45.046 66.7945 45.179 65.892 45.217C64.9895 45.255 64.125 45.0745 63.2985 44.666C62.472 44.2575 61.826 43.526 61.37 42.4525C60.971 41.5215 60.8665 40.5715 61.0565 39.6025C61.2465 38.6335 61.75 37.712 62.5765 36.838C63.403 35.964 64.5525 35.2135 66.025 34.596C67.051 34.159 68.1055 33.8645 69.1885 33.6935C70.2715 33.5225 71.2785 33.513 72.2 33.665L72.2475 36.971C70.4045 36.762 68.7515 36.9615 67.2695 37.5885C66.234 38.0255 65.531 38.5195 65.1795 39.0705C64.828 39.6215 64.7615 40.163 64.999 40.714C65.227 41.265 65.6925 41.55 66.3765 41.5785C67.0605 41.607 68.0485 41.5025 69.3405 41.2555C70.6895 41.0275 71.8105 40.8945 72.713 40.8565C73.6155 40.8185 74.48 40.9895 75.297 41.3885C76.1235 41.778 76.76 42.5095 77.216 43.583C77.6055 44.495 77.7005 45.445 77.5105 46.4235C77.3205 47.402 76.8075 48.3235 75.9715 49.1975C75.1355 50.0715 73.986 50.822 72.5135 51.4395C71.231 51.962 69.9295 52.3135 68.5995 52.4655Z" fill="#D7B56D"/>
<path d="M92.1025 42.3765L84.0845 43.4975L83.0775 47.4115L78.983 47.9815L84.265 29.6465L88.2075 29.0955L98.344 45.274L94.1545 45.863L92.1025 42.3765ZM90.421 39.517L86.7635 33.2945L84.949 40.2865L90.421 39.517Z" fill="#D7B56D"/>
<path d="M105.307 32.1925L104.737 36.762L112.746 37.7595L112.347 40.9705L104.339 39.973L103.55 46.2715L99.5505 45.7775L101.698 28.478L114.769 30.1025L114.37 33.3135L105.307 32.1925Z" fill="#D7B56D"/>
<path d="M128.421 49.853L127.262 52.874L114.665 48.048L120.906 31.7745L133.209 36.4865L132.05 39.5075L123.49 36.23L122.132 39.764L129.684 42.6615L128.563 45.5875L121.011 42.69L119.567 46.452L128.421 49.853Z" fill="#D7B56D"/>
<path d="M58.2255 152.387C58.178 153.128 57.874 153.831 57.304 154.486C56.506 155.408 55.5275 155.807 54.378 155.683C53.2285 155.56 51.965 154.895 50.5875 153.707L45.125 148.976L54.264 138.422L59.4225 142.887C60.7145 143.998 61.484 145.1 61.75 146.193C62.016 147.285 61.7785 148.245 61.047 149.09C60.6005 149.603 60.0875 149.955 59.489 150.145C58.8905 150.335 58.273 150.354 57.6365 150.202C58.0735 150.914 58.273 151.646 58.2255 152.387ZM53.732 152.653C54.245 152.729 54.6915 152.539 55.0715 152.102C55.8315 151.228 55.556 150.23 54.264 149.1L51.414 146.63L49.153 149.242L52.003 151.712C52.649 152.263 53.2285 152.577 53.732 152.653ZM55.1095 142.364L52.953 144.853L55.385 146.953C55.9835 147.475 56.5345 147.77 57.0285 147.827C57.5225 147.884 57.95 147.713 58.3015 147.295C58.6625 146.886 58.767 146.44 58.634 145.965C58.501 145.49 58.1305 144.986 57.532 144.473L55.1095 142.364Z" fill="#D7B56D"/>
<path d="M62.738 161.193C61.9495 160.138 61.484 158.97 61.351 157.697C61.218 156.424 61.446 155.17 62.0255 153.925C62.605 152.681 63.422 151.702 64.486 150.99C65.55 150.277 66.7375 149.878 68.058 149.802C69.3785 149.726 70.6895 150.002 72.01 150.61C73.321 151.227 74.3755 152.054 75.1545 153.108C75.943 154.163 76.399 155.332 76.5415 156.605C76.684 157.878 76.456 159.141 75.8765 160.376C75.297 161.611 74.4705 162.589 73.4065 163.302C72.3425 164.014 71.1455 164.413 69.8345 164.489C68.5235 164.565 67.2125 164.3 65.892 163.682C64.581 163.093 63.5265 162.257 62.738 161.193ZM69.3215 161.639C70.0815 161.573 70.7845 161.317 71.4115 160.861C72.0385 160.405 72.542 159.787 72.903 158.998C73.264 158.219 73.4255 157.441 73.3685 156.662C73.3115 155.883 73.0645 155.189 72.618 154.562C72.1715 153.935 71.5825 153.45 70.832 153.099C70.0815 152.747 69.331 152.605 68.5615 152.671C67.792 152.738 67.0985 152.994 66.4715 153.45C65.8445 153.906 65.341 154.524 64.98 155.303C64.6095 156.091 64.4575 156.87 64.5145 157.64C64.5715 158.419 64.8185 159.112 65.265 159.739C65.702 160.366 66.3005 160.851 67.051 161.203C67.8015 161.554 68.5615 161.706 69.3215 161.639Z" fill="#D7B56D"/>
<path d="M81.795 168.09C80.731 167.302 79.9615 166.314 79.4675 165.136C78.9735 163.958 78.831 162.685 79.0305 161.336C79.23 159.987 79.7335 158.809 80.5505 157.821C81.358 156.833 82.384 156.111 83.6285 155.664C84.873 155.218 86.2125 155.094 87.647 155.303C89.0815 155.512 90.326 156.016 91.3805 156.804C92.435 157.593 93.214 158.571 93.708 159.759C94.2115 160.937 94.354 162.21 94.1545 163.568C93.955 164.927 93.442 166.095 92.625 167.083C91.808 168.071 90.782 168.793 89.547 169.24C88.312 169.686 86.9725 169.81 85.538 169.601C84.1035 169.382 82.859 168.879 81.795 168.09ZM88.236 166.627C88.9485 166.352 89.547 165.905 90.0125 165.288C90.4875 164.67 90.782 163.939 90.915 163.084C91.0385 162.229 90.9625 161.44 90.687 160.709C90.4115 159.987 89.9745 159.388 89.3665 158.913C88.768 158.438 88.0555 158.144 87.2385 158.03C86.4215 157.906 85.6615 157.992 84.949 158.267C84.2365 158.543 83.638 158.989 83.163 159.607C82.688 160.224 82.3935 160.956 82.2605 161.811C82.137 162.666 82.213 163.454 82.4885 164.186C82.764 164.917 83.201 165.506 83.809 165.981C84.4075 166.456 85.12 166.751 85.937 166.874C86.754 166.988 87.514 166.903 88.236 166.627Z" fill="#D7B56D"/>
<path d="M103.398 164.205L101.783 166.38L102.22 169.886L99.028 170.285L97.299 156.424L100.491 156.025L101.299 162.495L106.628 155.256L110.19 154.809L105.222 161.706L112.261 168.622L108.519 169.088L103.398 164.205Z" fill="#D7B56D"/>
<path d="M111.587 153.973L114.665 152.995L118.912 166.295L115.834 167.273L111.587 153.973Z" fill="#D7B56D"/>
<path d="M128.868 146.021L135.613 158.248L133.285 159.531L123.092 155.474L127.186 162.903L124.393 164.442L117.648 152.216L119.985 150.924L130.16 154.99L126.065 147.57L128.868 146.021Z" fill="#D7B56D"/>
<path d="M142.719 142.44L144.828 140.379L148.789 144.435C148.647 145.376 148.324 146.297 147.83 147.219C147.326 148.131 146.718 148.948 145.996 149.651C144.961 150.667 143.811 151.351 142.548 151.722C141.284 152.092 140.04 152.111 138.805 151.779C137.57 151.456 136.468 150.8 135.499 149.812C134.53 148.824 133.903 147.703 133.608 146.459C133.314 145.214 133.371 143.96 133.77 142.697C134.169 141.433 134.9 140.293 135.945 139.277C136.819 138.422 137.76 137.795 138.757 137.386C139.755 136.987 140.771 136.826 141.807 136.911L141.664 139.733C140.22 139.676 138.985 140.141 137.978 141.129C137.342 141.756 136.905 142.44 136.667 143.191C136.43 143.941 136.411 144.692 136.61 145.452C136.81 146.202 137.218 146.896 137.826 147.523C138.434 148.14 139.109 148.558 139.859 148.777C140.61 148.995 141.36 148.995 142.12 148.786C142.88 148.577 143.564 148.169 144.191 147.551C144.856 146.896 145.322 146.174 145.569 145.366L142.719 142.44Z" fill="#D7B56D"/>
</svg>
