<svg width="190" height="190" viewBox="0 0 190 190" fill="none" xmlns="http://www.w3.org/2000/svg">
<path d="M95.323 52.551C70.7845 52.551 50.8915 72.444 50.8915 96.9825C50.8915 121.521 70.7845 141.414 95.323 141.414C119.861 141.414 139.754 121.521 139.754 96.9825C139.764 72.444 119.871 52.551 95.323 52.551Z" stroke="#D7B56D" stroke-width="2" stroke-miterlimit="10"/>
<path d="M96.0165 16.9735C51.0245 16.9735 14.554 53.444 14.554 98.436C14.554 143.428 51.0245 179.899 96.0165 179.899C141.008 179.899 177.479 143.428 177.479 98.436C177.479 53.444 141.008 16.9735 96.0165 16.9735Z" stroke="#D7B56D" stroke-width="2" stroke-miterlimit="10"/>
<path d="M106.571 92.8215V87.302C106.571 87.0835 106.533 84.908 106.457 84.699C105.944 83.274 103.569 79.8445 97.147 79.8445C90.8105 79.8445 88.4165 83.3025 87.856 84.68C87.761 84.908 87.723 86.447 87.723 86.6845V92.8215H106.571Z" fill="white"/>
<path d="M45.8185 74.7145C45.7805 74.6005 45.676 74.515 45.5525 74.496L39.7005 73.641L37.0785 68.3305C37.0215 68.2165 36.9075 68.15 36.784 68.15C36.6605 68.15 36.5465 68.2165 36.4895 68.3305L33.8675 73.641L28.0155 74.496C27.892 74.515 27.797 74.6005 27.7495 74.7145C27.7115 74.8285 27.74 74.9615 27.835 75.047L32.072 79.1795L31.0745 85.0125C31.0555 85.136 31.103 85.2595 31.2075 85.326C31.312 85.402 31.4355 85.4115 31.5495 85.3545L36.784 82.5995L42.0185 85.3545C42.066 85.383 42.1135 85.3925 42.1705 85.3925C42.237 85.3925 42.3035 85.3735 42.3605 85.326C42.4555 85.25 42.5125 85.1265 42.4935 85.0125L41.496 79.1795L45.733 75.047C45.828 74.952 45.8565 74.8285 45.8185 74.7145Z" fill="#D7B56D"/>
<path d="M42.579 102.198C42.541 102.084 42.4365 101.999 42.313 101.98L36.461 101.125L33.839 95.814C33.782 95.7 33.668 95.6335 33.5445 95.6335C33.421 95.6335 33.307 95.7 33.25 95.814L30.628 101.125L24.776 101.98C24.6525 101.999 24.5575 102.084 24.51 102.198C24.472 102.312 24.5005 102.445 24.5955 102.531L28.8325 106.663L27.835 112.496C27.816 112.62 27.8635 112.743 27.968 112.81C28.0725 112.886 28.196 112.895 28.31 112.838L33.5445 110.083L38.779 112.838C38.8265 112.867 38.874 112.876 38.931 112.876C38.9975 112.876 39.064 112.857 39.121 112.81C39.216 112.734 39.273 112.61 39.254 112.496L38.2565 106.663L42.4935 102.531C42.579 102.445 42.617 102.312 42.579 102.198Z" fill="#D7B56D"/>
<path d="M145.53 75.009L149.767 79.1415L148.77 84.9745C148.751 85.098 148.798 85.2215 148.903 85.288C148.96 85.326 149.026 85.3545 149.093 85.3545C149.14 85.3545 149.197 85.345 149.245 85.3165L154.479 82.5615L159.714 85.3165C159.818 85.3735 159.951 85.364 160.056 85.288C160.151 85.212 160.208 85.0885 160.189 84.9745L159.191 79.1415L163.428 75.009C163.514 74.9235 163.552 74.7905 163.514 74.6765C163.476 74.5625 163.371 74.477 163.248 74.458L157.396 73.603L154.774 68.2925C154.717 68.1785 154.603 68.112 154.479 68.112C154.356 68.112 154.242 68.1785 154.185 68.2925L151.563 73.603L145.711 74.458C145.587 74.477 145.483 74.5625 145.445 74.6765C145.407 74.8 145.445 74.9235 145.53 75.009Z" fill="#D7B56D"/>
<path d="M147.829 102.502L152.066 106.635L151.069 112.468C151.05 112.591 151.097 112.715 151.202 112.781C151.259 112.819 151.325 112.848 151.392 112.848C151.439 112.848 151.496 112.838 151.544 112.81L156.778 110.055L162.013 112.81C162.117 112.867 162.25 112.857 162.355 112.781C162.45 112.705 162.507 112.582 162.488 112.468L161.49 106.635L165.727 102.502C165.813 102.417 165.851 102.284 165.813 102.17C165.775 102.056 165.67 101.97 165.547 101.951L159.695 101.096L157.073 95.7855C157.016 95.6715 156.902 95.605 156.778 95.605C156.655 95.605 156.541 95.6715 156.484 95.7855L153.862 101.096L148.01 101.951C147.886 101.97 147.782 102.056 147.744 102.17C147.706 102.284 147.734 102.417 147.829 102.502Z" fill="#D7B56D"/>
<path d="M65.645 51.6865C65.683 52.399 65.569 53.083 65.284 53.7385C64.999 54.3845 64.581 54.9735 64.011 55.496C63.2415 56.1895 62.396 56.655 61.484 56.8925C60.5625 57.13 59.3275 57.187 57.7695 57.073C56.7245 57.8045 55.6225 58.2605 54.4445 58.4505C53.276 58.6405 52.136 58.5265 51.034 58.137C49.932 57.7475 48.963 57.0825 48.1175 56.161C47.196 55.1445 46.607 54.014 46.36 52.76C46.113 51.506 46.208 50.252 46.645 49.0075C47.082 47.763 47.842 46.6515 48.9155 45.673C49.989 44.6945 51.167 44.0485 52.44 43.735C53.713 43.4215 54.967 43.4405 56.202 43.811C57.4275 44.172 58.5105 44.8655 59.432 45.882C60.5245 47.079 61.142 48.447 61.294 49.9575C61.446 51.4775 61.123 52.9215 60.3345 54.28C60.8095 54.3085 61.218 54.28 61.5505 54.185C61.883 54.09 62.187 53.919 62.453 53.672C63.0895 53.0925 63.422 52.323 63.441 51.373L65.645 51.6865ZM52.516 55.287C53.2475 55.534 53.998 55.572 54.739 55.4105C55.48 55.249 56.164 54.888 56.772 54.3275C57.38 53.7765 57.8075 53.1305 58.045 52.399C58.2825 51.6675 58.311 50.9265 58.14 50.176C57.969 49.416 57.589 48.7225 57 48.0765C56.4205 47.44 55.7555 46.9935 55.024 46.7465C54.283 46.4995 53.542 46.4615 52.801 46.623C52.06 46.7845 51.376 47.155 50.768 47.706C50.16 48.257 49.7325 48.903 49.495 49.6345C49.2575 50.366 49.229 51.107 49.4 51.8575C49.5805 52.6175 49.951 53.311 50.54 53.957C51.1195 54.603 51.7845 55.0495 52.516 55.287Z" fill="#D7B56D"/>
<path d="M67.7445 47.554C66.2815 47.003 65.1225 45.7965 64.2865 43.925L61.0755 36.8L64.0205 35.47L67.184 42.4905C68.21 44.7705 69.673 45.483 71.5635 44.628C72.485 44.21 73.0645 43.621 73.302 42.8515C73.5395 42.082 73.3875 41.113 72.865 39.935L69.7015 32.9145L72.6085 31.6035L75.8195 38.7285C76.665 40.6 76.798 42.2625 76.247 43.7255C75.6865 45.1885 74.499 46.3285 72.6845 47.1455C70.851 47.972 69.2075 48.105 67.7445 47.554Z" fill="#D7B56D"/>
<path d="M90.6395 39.2605L84.208 40.0585L83.353 43.184L80.066 43.5925L84.5215 28.9625L87.685 28.573L95.5985 41.664L92.2355 42.082L90.6395 39.2605ZM89.3285 36.952L86.469 31.917L84.93 37.4935L89.3285 36.952Z" fill="#D7B56D"/>
<path d="M99.8355 28.25L103.037 28.6965L101.479 39.9255L108.414 40.8945L108.053 43.507L97.9165 42.101L99.8355 28.25Z" fill="#D7B56D"/>
<path d="M115.216 31.328L118.275 32.373L113.753 45.5875L110.694 44.5425L115.216 31.328Z" fill="#D7B56D"/>
<path d="M125.951 38.7475L122.084 36.515L123.395 34.235L133.94 40.315L132.629 42.595L128.763 40.3625L123.101 50.176L120.299 48.561L125.951 38.7475Z" fill="#D7B56D"/>
<path d="M137.018 55.059L133.57 58.6025L131.252 56.351L134.729 52.779L137.113 42.576L139.574 44.97L137.921 52.019L144.922 50.176L147.193 52.3895L137.018 55.059Z" fill="#D7B56D"/>
<path d="M44.1655 132.066L45.7235 134.574L40.907 137.557C40.0235 137.215 39.1875 136.702 38.399 136.018C37.6105 135.334 36.955 134.555 36.423 133.7C35.663 132.465 35.2355 131.202 35.15 129.891C35.0645 128.58 35.321 127.354 35.9005 126.224C36.4895 125.084 37.3635 124.153 38.5415 123.421C39.7195 122.69 40.945 122.319 42.2275 122.3C43.51 122.281 44.7165 122.604 45.866 123.279C47.006 123.944 47.9655 124.903 48.735 126.148C49.381 127.183 49.7895 128.238 49.97 129.302C50.141 130.366 50.0745 131.392 49.7705 132.389L47.044 131.639C47.4145 130.233 47.2245 128.941 46.4835 127.734C46.018 126.974 45.4385 126.404 44.7545 126.015C44.0705 125.625 43.339 125.445 42.56 125.473C41.781 125.502 41.021 125.749 40.2705 126.214C39.539 126.67 38.9785 127.24 38.608 127.924C38.2375 128.608 38.0665 129.34 38.1045 130.128C38.1425 130.907 38.3895 131.677 38.855 132.418C39.349 133.206 39.957 133.814 40.6885 134.242L44.1655 132.066Z" fill="#D7B56D"/>
<path d="M45.79 143.323C45.7235 141.756 46.3885 140.226 47.785 138.725L53.0955 132.987L55.4705 135.182L50.236 140.834C48.5355 142.668 48.45 144.292 49.97 145.698C50.711 146.382 51.4805 146.687 52.288 146.611C53.086 146.525 53.9315 146.012 54.8055 145.071L60.04 139.419L62.377 141.594L57.0665 147.332C55.67 148.833 54.1975 149.613 52.63 149.67C51.0625 149.727 49.552 149.071 48.089 147.722C46.6165 146.354 45.8565 144.891 45.79 143.323Z" fill="#D7B56D"/>
<path d="M67.5545 157.041L61.8165 154.02L59.3275 156.091L56.4015 154.552L68.4095 145.1L71.231 146.591L70.2525 161.858L67.2505 160.281L67.5545 157.041ZM67.8015 154.4L68.3335 148.634L63.8875 152.339L67.8015 154.4Z" fill="#D7B56D"/>
<path d="M83.4385 165.269L81.7 160.861L81.548 160.823L78.812 160.186L77.9285 163.977L74.784 163.245L77.957 149.641L83.847 151.019C85.0535 151.304 86.051 151.741 86.8395 152.358C87.6375 152.966 88.1885 153.698 88.4925 154.543C88.7965 155.389 88.8345 156.32 88.597 157.336C88.3595 158.343 87.913 159.16 87.2575 159.778C86.602 160.395 85.785 160.794 84.797 160.975L86.83 166.057L83.4385 165.269ZM85.0725 154.657C84.6735 154.135 84.0085 153.764 83.0585 153.546L80.4935 152.947L79.3915 157.688L81.9565 158.286C82.9065 158.505 83.6665 158.467 84.2555 158.172C84.8445 157.878 85.2245 157.346 85.405 156.595C85.5855 155.826 85.4715 155.18 85.0725 154.657Z" fill="#D7B56D"/>
<path d="M101.536 163.255L95.057 163.454L93.9075 166.485L90.6015 166.589L96.3965 152.444L99.5885 152.349L106.257 166.114L102.866 166.219L101.536 163.255ZM100.443 160.832L98.0685 155.56L96.0165 160.975L100.443 160.832Z" fill="#D7B56D"/>
<path d="M119.177 147.969L123.31 161.307L120.773 162.095L111.615 156.053L114.123 164.157L111.074 165.097L106.941 151.759L109.497 150.971L118.636 157.013L116.128 148.909L119.177 147.969Z" fill="#D7B56D"/>
<path d="M125.685 147.275L121.857 149.584L120.498 147.332L130.91 141.034L132.268 143.285L128.44 145.594L134.301 155.294L131.537 156.966L125.685 147.275Z" fill="#D7B56D"/>
<path d="M147.678 140.768L149.473 142.639L141.673 150.135L132.002 140.065L139.612 132.75L141.408 134.621L136.116 139.704L138.215 141.889L142.89 137.396L144.628 139.21L139.954 143.704L142.196 146.031L147.678 140.768Z" fill="#D7B56D"/>
<path d="M156.607 127.829L158.783 129.235L152.912 138.317L141.179 130.736L146.908 121.872L149.083 123.278L145.103 129.444L147.649 131.088L151.164 125.644L153.273 127.012L149.758 132.455L152.475 134.213L156.607 127.829Z" fill="#D7B56D"/>
<path d="M77.0723 110.365L68.3313 88.0781L74.0178 93.7524L78.8228 83.261H80.5734L86.6945 92.0018L95.4354 76.7053H98.0552L106.362 92.4486L112.929 83.261H114.668L119.92 93.7524L124.725 88.0781L125.159 88.5127L116.418 110.365H77.0723Z" fill="#D7B56D"/>
<path d="M67.8967 88.9474C69.1036 88.9474 70.082 87.969 70.082 86.7621C70.082 85.5553 69.1036 84.5769 67.8967 84.5769C66.6899 84.5769 65.7115 85.5553 65.7115 86.7621C65.7115 87.969 66.6899 88.9474 67.8967 88.9474Z" fill="#D7B56D"/>
<path d="M126.065 88.9594C127.272 88.9594 128.25 87.981 128.25 86.7742C128.25 85.5673 127.272 84.5889 126.065 84.5889C124.858 84.5889 123.88 85.5673 123.88 86.7742C123.88 87.981 124.858 88.9594 126.065 88.9594Z" fill="#D7B56D"/>
<path d="M114.269 83.7801C115.736 83.7801 116.925 82.5909 116.925 81.124C116.925 79.6571 115.736 78.468 114.269 78.468C112.802 78.468 111.613 79.6571 111.613 81.124C111.613 82.5909 112.802 83.7801 114.269 83.7801Z" fill="#D7B56D"/>
<path d="M79.9457 83.5507C81.4126 83.5507 82.6017 82.3615 82.6017 80.8946C82.6017 79.4277 81.4126 78.2385 79.9457 78.2385C78.4788 78.2385 77.2896 79.4277 77.2896 80.8946C77.2896 82.3615 78.4788 83.5507 79.9457 83.5507Z" fill="#D7B56D"/>
<path d="M96.9445 77.2727C98.7848 77.2727 100.277 75.7808 100.277 73.9405C100.277 72.1002 98.7848 70.6083 96.9445 70.6083C95.1042 70.6083 93.6124 72.1002 93.6124 73.9405C93.6124 75.7808 95.1042 77.2727 96.9445 77.2727Z" fill="#D7B56D"/>
<path d="M116.418 112.116H77.0723V116.486H116.418V112.116Z" fill="#D7B56D"/>
</svg>
