<svg width="272" height="57" viewBox="0 0 272 57" fill="none" xmlns="http://www.w3.org/2000/svg">
<path d="M117.71 28.8133C117.71 27.4279 117.46 26.4399 116.96 25.86C116.46 25.2801 115.62 24.9901 114.45 24.9901H106.56C105.39 24.9901 104.55 25.2693 104.05 25.8385C103.55 26.4077 103.3 27.2883 103.3 28.4911V30.5208H117.7V28.8133H117.71ZM106.57 45.0403C103.69 45.0403 101.45 44.3422 99.85 42.9354C98.25 41.5286 97.45 39.2411 97.45 36.0515V28.4804C97.45 25.2908 98.25 23.0034 99.85 21.5965C101.45 20.1897 103.69 19.4916 106.57 19.4916H114.46C117.34 19.4916 119.58 20.1897 121.2 21.5965C122.82 23.0034 123.62 25.2908 123.62 28.4804V34.4836H103.31V36.0408C103.31 37.3617 103.6 38.2746 104.17 38.7793C104.74 39.284 105.54 39.531 106.57 39.531H123.13L122.38 45.0188H106.57V45.0403ZM89.34 45.0403V29.812C89.34 29.114 89.3 28.4696 89.23 27.8682C89.16 27.2668 89.01 26.7514 88.79 26.3325C88.57 25.903 88.25 25.5808 87.82 25.3338C87.39 25.0975 86.83 24.9794 86.12 24.9794H81.85C80.62 24.9794 79.75 25.2264 79.25 25.7311C78.75 26.2359 78.5 27.0198 78.5 28.0938V45.0295H72.82V28.0938C72.82 27.0198 72.57 26.2359 72.07 25.7311C71.57 25.2264 70.73 24.9794 69.56 24.9794H65.38C64.53 24.9794 63.87 25.1834 63.42 25.5915C62.96 25.9996 62.63 26.6118 62.43 27.4387V45.0403H56.7V19.4916H62.21V23.1859C62.71 22.0798 63.41 21.1884 64.32 20.5119C65.23 19.8353 66.48 19.4916 68.06 19.4916H69.91C72.17 19.4916 73.94 19.846 75.22 20.5548C76.5 21.2636 77.39 22.5201 77.88 24.3136C78.32 22.606 79.08 21.3817 80.17 20.6193C81.26 19.8675 82.73 19.4809 84.58 19.4809H86.65C88.35 19.4809 89.75 19.6849 90.83 20.093C91.92 20.5011 92.78 21.1347 93.41 21.9831C94.04 22.8315 94.48 23.8947 94.73 25.1727C94.98 26.4507 95.1 27.9542 95.1 29.6939V45.0188H89.34V45.0403ZM48.32 28.4804C48.32 27.1595 48.06 26.2359 47.53 25.7311C47 25.2264 46.18 24.9794 45.06 24.9794H37.17C36.05 24.9794 35.23 25.2264 34.7 25.7311C34.17 26.2359 33.91 27.1487 33.91 28.4804V36.0515C33.91 37.3725 34.17 38.2853 34.7 38.79C35.23 39.2948 36.05 39.5418 37.17 39.5418H45.06C46.18 39.5418 47 39.2948 47.53 38.79C48.06 38.2853 48.32 37.3725 48.32 36.0515V28.4804ZM37.17 45.0403C33.97 45.0403 31.65 44.3422 30.21 42.9354C28.77 41.5286 28.05 39.2411 28.05 36.0515V28.4804C28.05 25.2908 28.77 23.0034 30.21 21.5965C31.65 20.1897 33.97 19.4916 37.17 19.4916H45.06C48.29 19.4916 50.63 20.1897 52.06 21.5965C53.5 23.0034 54.22 25.2908 54.22 28.4804V36.0515C54.22 39.2411 53.5 41.5286 52.06 42.9354C50.62 44.3422 48.29 45.0403 45.06 45.0403H37.17ZM19.72 45.0403V28.9099C19.72 27.589 19.49 26.601 19.02 25.9567C18.55 25.3123 17.7 24.9901 16.47 24.9901H8.81C7.96 24.9901 7.31 25.1834 6.87 25.5808C6.43 25.9781 6.09 26.601 5.86 27.4494V45.051H0V11.652L5.86 9.52563V23.1967C6.51 21.8435 7.26 20.8877 8.13 20.3293C9 19.7816 10.13 19.5024 11.54 19.5024H16.47C18.2 19.5024 19.66 19.7064 20.83 20.1145C22 20.5226 22.94 21.1562 23.65 22.0046C24.35 22.853 24.86 23.9162 25.17 25.1942C25.48 26.4721 25.63 27.9756 25.63 29.7154V45.0403H19.72Z" fill="white"/>
<path d="M270.91 44.9008C270.62 45.0941 270.15 45.266 269.52 45.4163C268.89 45.5774 268.19 45.6526 267.43 45.6526C264.43 45.6526 262.29 44.6216 261 42.5489C259.71 40.487 259.06 37.4156 259.06 33.3454V24.3137H256.37L257.07 19.6314H259.05V13.9611L264.95 11.8777V19.6314H269.88L269.18 24.3137H264.95V33.3454C264.95 35.6114 265.27 37.3082 265.92 38.4358C266.57 39.5527 267.64 40.1111 269.14 40.1111C270.34 40.1111 271.22 39.8856 271.78 39.4453L270.91 44.9008ZM250.2 45.18V29.0497C250.2 27.7288 249.97 26.7408 249.49 26.0964C249.02 25.4521 248.17 25.1299 246.94 25.1299H239.28C238.43 25.1299 237.78 25.3232 237.34 25.7206C236.9 26.1179 236.56 26.7408 236.33 27.5892V45.1908H230.47V19.6422H236.11V23.3365C236.76 21.9833 237.5 21.0275 238.36 20.4691C239.21 19.9214 240.34 19.6422 241.75 19.6422H246.95C248.68 19.6422 250.14 19.8462 251.31 20.2543C252.48 20.6624 253.42 21.296 254.13 22.1444C254.83 22.9928 255.34 24.056 255.65 25.3339C255.96 26.6119 256.11 28.1154 256.11 29.8552V45.18H250.2ZM222.22 28.9531C222.22 27.5677 221.97 26.5797 221.47 25.9998C220.97 25.4199 220.13 25.1299 218.96 25.1299H211.07C209.9 25.1299 209.06 25.4091 208.56 25.9783C208.06 26.5475 207.81 27.4281 207.81 28.6309V30.6606H222.21V28.9531H222.22ZM211.07 45.18C208.19 45.18 205.95 44.482 204.35 43.0752C202.75 41.6683 201.95 39.3809 201.95 36.1913V28.6202C201.95 25.4306 202.75 23.1431 204.35 21.7363C205.95 20.3295 208.19 19.6314 211.07 19.6314H218.96C221.84 19.6314 224.08 20.3295 225.7 21.7363C227.32 23.1431 228.12 25.4306 228.12 28.6202V34.6234H207.81V36.1806C207.81 37.5015 208.1 38.4143 208.67 38.9191C209.24 39.4238 210.04 39.6708 211.07 39.6708H227.63L226.88 45.1586H211.07V45.18ZM186.7 45.18V19.6422H192.38V23.1431C192.91 21.8544 193.69 20.9094 194.71 20.3295C195.74 19.7495 196.91 19.4596 198.23 19.4596C198.88 19.4596 199.49 19.5348 200.06 19.6744C200.63 19.814 201.14 19.9966 201.58 20.2221L200.74 25.9031C200.33 25.5273 199.86 25.2695 199.33 25.1192C198.8 24.9796 198.07 24.9044 197.13 24.9044C195.78 24.9044 194.72 25.2051 193.96 25.8065C193.2 26.4079 192.74 27.2241 192.59 28.2658V45.2015H186.7V45.18Z" fill="#D7B56D"/>
<path d="M154.36 21.0166H148.78V27.0091H154.36V21.0166Z" fill="#D7B56D"/>
<path d="M161.93 21.0166H156.35V27.0091H161.93V21.0166Z" fill="white"/>
<path d="M154.36 28.7059H148.78V34.6984H154.36V28.7059Z" fill="#D7B56D"/>
<path d="M161.93 28.7059H156.35V34.6984H161.93V28.7059Z" fill="white"/>
<path d="M136.72 28.459L154.35 9.5257V0L127.85 28.459L154.35 56.9179V47.3922L136.72 28.459Z" fill="#D7B56D"/>
<path d="M173.99 28.459L156.36 9.5257V0L182.86 28.459L156.36 56.9179V47.3922L173.99 28.459Z" fill="white"/>
</svg>
